<svg id="_564_currency_outline" data-name="#564_currency_outline" xmlns="http://www.w3.org/2000/svg" viewBox="0 0 400 300" width="406" height="306" class="illustration styles_illustrationTablet__1DWOa"><circle cx="147.57" cy="103.5" r="43.11" fill="#020b2a"></circle><path d="M147.57,147.62a44.12,44.12,0,1,1,44.11-44.12A44.17,44.17,0,0,1,147.57,147.62Zm0-86.23a42.12,42.12,0,1,0,42.11,42.11A42.16,42.16,0,0,0,147.57,61.39Z" fill="#093f68"></path><circle cx="252.43" cy="103.5" r="43.11" fill="#020b2a"></circle><path d="M252.43,147.62a44.12,44.12,0,1,1,44.11-44.12A44.16,44.16,0,0,1,252.43,147.62Zm0-86.23a42.12,42.12,0,1,0,42.11,42.11A42.16,42.16,0,0,0,252.43,61.39Z" fill="#093f68"></path><circle cx="147.57" cy="196.5" r="43.11" fill="#020b2a"></circle><path d="M147.57,240.61a44.12,44.12,0,1,1,44.11-44.11A44.16,44.16,0,0,1,147.57,240.61Zm0-86.23a42.12,42.12,0,1,0,42.11,42.12A42.17,42.17,0,0,0,147.57,154.38Z" fill="#093f68"></path><circle cx="252.43" cy="196.5" r="43.11" fill="#020b2a"></circle><path d="M252.43,240.61a44.12,44.12,0,1,1,44.11-44.11A44.16,44.16,0,0,1,252.43,240.61Zm0-86.23a42.12,42.12,0,1,0,42.11,42.12A42.17,42.17,0,0,0,252.43,154.38Z" fill="#093f68"></path><path d="M143.33,210.25a13.71,13.71,0,0,0,.88-10.67h6.85v-5.7c-2.69,0-5.31-.09-7.92,0a2.22,2.22,0,0,1-2.44-1.53c-2.14-4.46-1.57-9,1.77-12.3s8.59-4,12.13.32a48.1,48.1,0,0,1,3.2,5c.32.51.57,1.08.86,1.65l7.37-3.23c-1-1.74-1.81-3.41-2.8-5a18.61,18.61,0,0,0-7.38-7.29c-6.08-3.05-11.95-2.3-17.28,1.67a16.85,16.85,0,0,0-7,16.55c.18,1.38.59,2.73.92,4.22h-5.3v5.69c2.56,0,5.06,0,7.56,0,.29,0,.75.08.84.27.76,1.55,1.61,3.14,1.16,5a13.36,13.36,0,0,1-8.05,9.23l-.52.26c.9,2.42,1.79,4.78,2.68,7.17.44-.16.78-.26,1.09-.4,1.39-.64,2.75-1.37,4.16-1.93,3.45-1.36,6.93-1.84,10.47-.27.88.39,1.78.75,2.68,1.13,5.34,2.28,10.08.65,14.72-2.18l-3.39-7.5c-.61.37-1.1.7-1.62,1-2.28,1.21-4.68,2.13-7.26,1.27S146.4,210.4,143.33,210.25Z" fill="#093f68"></path><path d="M158.32,103.14a63,63,0,0,0-6-2.92.91.91,0,0,1-.65-1c0-3.53,0-7.07,0-10.6,0-.14.05-.27.07-.45a15.25,15.25,0,0,1,6.71,4.29l5-5.85a20.47,20.47,0,0,0-11-6.41c-.62-.13-.81-.36-.79-1,.05-1.26,0-2.52,0-3.86h-6.5v4.38a44.35,44.35,0,0,0-5,1.72c-4.54,2.25-7.44,5.75-7.63,11s2.25,8.79,6.56,11.28a59.38,59.38,0,0,0,5.41,2.56.89.89,0,0,1,.65,1c0,2.93,0,5.84,0,8.76v3.76a17.32,17.32,0,0,1-8.86-4.75l-5.52,6a23.59,23.59,0,0,0,14.39,6.78v3.74h6.48v-3.93l.91-.24a18.37,18.37,0,0,0,5.52-2.26C166.21,120.16,166.61,108.11,158.32,103.14ZM145.13,97a5,5,0,0,1-3.85-4.62,4.34,4.34,0,0,1,3.85-4.19Zm6.58,22.32a4.43,4.43,0,0,1-.06-.51v-9.21a5,5,0,0,1,3.87,4.91A4.91,4.91,0,0,1,151.71,119.33Z" fill="#093f68"></path><path d="M267.22,90.63l5.15-6.23a19.68,19.68,0,0,0-6.91-5c-6.1-2.62-12.16-2.08-18,.82s-9.25,7.92-11.18,14c-.63,2-.62,2-2.73,2h-5.86V102H235v3H227.7v5.83h7.91c2.43,9.71,7.77,16.44,18,18.1a20.21,20.21,0,0,0,19.71-7.2c-1.73-2-3.42-4-5.14-6.06-2.32,2.4-4.8,4.43-8.12,5a12,12,0,0,1-9.27-1.87c-2.75-1.94-4.25-4.71-5.22-8h18.6V105h-19.4v-3h19.39V96.21h-18.5c1.38-4.39,3.79-7.81,8.16-9.34C259,85.06,263.44,86.66,267.22,90.63Z" fill="#093f68"></path><path d="M272,174.27c-4.22,7.85-8.36,15.53-12.57,23.34h10.35v5.53H257.81v2.77h11.9v5.5H257.78v13H247.14v-13h-12V206h11.91v-2.8H235.17v-5.49h10.34l-12.61-23.4H238c1.89,0,3.77,0,5.66,0a.86.86,0,0,1,1,.64q3.71,8.59,7.46,17.16c.1.23.22.44.41.83.22-.45.37-.72.49-1q3.78-8.46,7.56-16.91c.13-.29.49-.67.75-.68C264.77,174.26,268.28,174.27,272,174.27Z" fill="#093f68"></path><path d="M147.57,141A37.47,37.47,0,1,1,185,103.5,37.51,37.51,0,0,1,147.57,141Zm0-72.94A35.47,35.47,0,1,0,183,103.5,35.51,35.51,0,0,0,147.57,68Z" fill="#093f68"></path><path d="M252.43,141A37.47,37.47,0,1,1,289.9,103.5,37.51,37.51,0,0,1,252.43,141Zm0-72.94A35.47,35.47,0,1,0,287.9,103.5,35.51,35.51,0,0,0,252.43,68Z" fill="#093f68"></path><path d="M147.57,234A37.47,37.47,0,1,1,185,196.5,37.51,37.51,0,0,1,147.57,234Zm0-72.94A35.47,35.47,0,1,0,183,196.5,35.51,35.51,0,0,0,147.57,161Z" fill="#093f68"></path><path d="M252.43,234A37.47,37.47,0,1,1,289.9,196.5,37.51,37.51,0,0,1,252.43,234Zm0-72.94A35.47,35.47,0,1,0,287.9,196.5,35.51,35.51,0,0,0,252.43,161Z" fill="#093f68"></path></svg>